<svg width="197" height="51" viewBox="0 0 197 51" fill="none" xmlns="http://www.w3.org/2000/svg">
<mask id="path-1-outside-1_1_5" maskUnits="userSpaceOnUse" x="0" y="0" width="197" height="51" fill="black">
<rect fill="white" width="197" height="51"/>
<path d="M15.912 5.48C13.0533 6.67467 10.8347 8.46667 9.256 10.856C7.72 13.2453 6.952 16.1253 6.952 19.496C6.952 21.0747 7.10133 22.184 7.4 22.824C7.69867 23.4213 7.848 23.7627 7.848 23.848C5.544 23.848 3.816 23.3787 2.664 22.44C1.55467 21.4587 1 19.8587 1 17.64C1 14.9093 2.10933 12.264 4.328 9.704C6.58933 7.10134 9.46933 5.01067 12.968 3.432C16.4667 1.81067 19.9653 1 23.464 1C24.0613 1 24.9147 1.04267 26.024 1.128L21.928 20.2H31.336L35.432 1.128H44.648L34.472 49H25.256L30.376 24.936H20.968L15.848 49H6.632L15.912 5.48Z"/>
<path d="M50.4745 49.384C48.0425 49.384 46.0158 48.552 44.3945 46.888C42.7732 45.224 41.9625 42.6213 41.9625 39.08C41.9625 35.9227 42.5812 32.616 43.8185 29.16C45.0985 25.6613 46.9758 22.7173 49.4505 20.328C51.9678 17.896 54.9545 16.68 58.4105 16.68C60.1598 16.68 61.4612 16.9787 62.3145 17.576C63.1678 18.1733 63.5945 18.9627 63.5945 19.944V20.392L64.2985 17H73.5145L68.9065 38.76C68.7358 39.4 68.6505 40.0827 68.6505 40.808C68.6505 42.6427 69.5252 43.56 71.2745 43.56C72.4692 43.56 73.4932 43.0053 74.3465 41.896C75.2425 40.7867 75.9465 39.336 76.4585 37.544H79.1465C77.5678 42.152 75.6052 45.288 73.2585 46.952C70.9545 48.5733 68.6292 49.384 66.2825 49.384C64.4905 49.384 63.0398 48.8933 61.9305 47.912C60.8638 46.888 60.2238 45.416 60.0105 43.496C58.7732 45.2453 57.3865 46.6747 55.8505 47.784C54.3572 48.8507 52.5652 49.384 50.4745 49.384ZM54.6345 43.176C55.7012 43.176 56.7465 42.6853 57.7705 41.704C58.8372 40.68 59.5625 39.2933 59.9465 37.544L63.0185 23.08C63.0185 22.5253 62.8052 21.992 62.3785 21.48C61.9518 20.9253 61.2905 20.648 60.3945 20.648C58.6878 20.648 57.1518 21.6507 55.7865 23.656C54.4212 25.6187 53.3545 28.008 52.5865 30.824C51.8185 33.5973 51.4345 36.0507 51.4345 38.184C51.4345 40.3173 51.7332 41.6827 52.3305 42.28C52.9705 42.8773 53.7385 43.176 54.6345 43.176Z"/>
<path d="M87.17 13.544C85.762 13.544 84.5673 13.0533 83.586 12.072C82.6047 11.0907 82.114 9.896 82.114 8.488C82.114 7.08 82.6047 5.88534 83.586 4.904C84.5673 3.88 85.762 3.368 87.17 3.368C88.578 3.368 89.7727 3.88 90.754 4.904C91.778 5.88534 92.29 7.08 92.29 8.488C92.29 9.896 91.778 11.0907 90.754 12.072C89.7727 13.0533 88.578 13.544 87.17 13.544ZM82.818 49.384C80.77 49.384 79.106 48.744 77.826 47.464C76.5887 46.184 75.97 44.264 75.97 41.704C75.97 40.6373 76.1407 39.2507 76.482 37.544L80.834 17H90.05L85.442 38.76C85.2713 39.4 85.186 40.0827 85.186 40.808C85.186 41.6613 85.378 42.28 85.762 42.664C86.1887 43.0053 86.8713 43.176 87.81 43.176C89.0473 43.176 90.1993 42.664 91.266 41.64C92.3327 40.5733 93.1007 39.208 93.57 37.544H96.258C94.6793 42.152 92.6527 45.288 90.178 46.952C87.7033 48.5733 85.25 49.384 82.818 49.384Z"/>
<path d="M97.8965 17H107.113L106.281 20.968C107.731 19.688 109.033 18.7067 110.185 18.024C111.379 17.3413 112.659 17 114.025 17C115.39 17 116.457 17.4693 117.225 18.408C118.035 19.3467 118.441 20.4773 118.441 21.8C118.441 23.0373 118.035 24.1253 117.225 25.064C116.414 26.0027 115.283 26.472 113.833 26.472C112.894 26.472 112.254 26.2587 111.912 25.832C111.614 25.3627 111.379 24.7013 111.209 23.848C111.081 23.2933 110.953 22.888 110.825 22.632C110.697 22.376 110.462 22.248 110.121 22.248C109.225 22.248 108.457 22.44 107.817 22.824C107.219 23.1653 106.43 23.784 105.449 24.68L100.328 49H91.1125L97.8965 17Z"/>
<path d="M138.215 27.752L133.479 5.288C130.45 6.44 128.103 8.232 126.439 10.664C124.775 13.0533 123.943 15.9973 123.943 19.496C123.943 21.0747 124.092 22.184 124.391 22.824C124.69 23.4213 124.839 23.7627 124.839 23.848C122.535 23.848 120.807 23.3787 119.655 22.44C118.546 21.4587 117.991 19.8587 117.991 17.64C117.991 14.9093 119.1 12.264 121.319 9.704C123.58 7.10134 126.46 5.01067 129.959 3.432C133.458 1.81067 136.956 1 140.455 1C141.052 1 141.906 1.04267 143.015 1.128L145.767 14.44L153.191 1.32H157.671L146.919 19.944L152.935 49H142.759L139.367 33L130.087 49H126.183L138.215 27.752Z"/>
<path d="M172.014 8.296L181.486 7.016L176.942 28.392C178.99 28.2213 180.868 27.3253 182.574 25.704C184.324 24.0827 185.689 22.0773 186.671 19.688C187.652 17.2987 188.143 14.952 188.143 12.648C188.143 10.088 187.481 7.99734 186.158 6.376C184.836 4.75467 182.852 3.944 180.206 3.944C175.001 3.944 170.926 5.30933 167.982 8.04C165.081 10.7707 163.63 14.5893 163.63 19.496C163.63 21.0747 163.78 22.184 164.078 22.824C164.377 23.4213 164.526 23.7627 164.526 23.848C162.222 23.848 160.494 23.3787 159.342 22.44C158.233 21.4587 157.678 19.8587 157.678 17.64C157.678 14.9093 158.788 12.264 161.007 9.704C163.268 7.10134 166.148 5.01067 169.646 3.432C173.145 1.81067 176.644 1 180.143 1C183.513 1 186.329 1.576 188.59 2.728C190.852 3.88 192.516 5.416 193.582 7.336C194.692 9.21333 195.246 11.304 195.246 13.608C195.246 16.3813 194.479 19.0907 192.943 21.736C191.449 24.3813 189.294 26.5573 186.479 28.264C183.662 29.928 180.42 30.76 176.75 30.76H176.43L172.526 49H163.311L172.014 8.296Z"/>
</mask>
<path d="M15.912 5.48C13.0533 6.67467 10.8347 8.46667 9.256 10.856C7.72 13.2453 6.952 16.1253 6.952 19.496C6.952 21.0747 7.10133 22.184 7.4 22.824C7.69867 23.4213 7.848 23.7627 7.848 23.848C5.544 23.848 3.816 23.3787 2.664 22.44C1.55467 21.4587 1 19.8587 1 17.64C1 14.9093 2.10933 12.264 4.328 9.704C6.58933 7.10134 9.46933 5.01067 12.968 3.432C16.4667 1.81067 19.9653 1 23.464 1C24.0613 1 24.9147 1.04267 26.024 1.128L21.928 20.2H31.336L35.432 1.128H44.648L34.472 49H25.256L30.376 24.936H20.968L15.848 49H6.632L15.912 5.48Z" fill="black"/>
<path d="M50.4745 49.384C48.0425 49.384 46.0158 48.552 44.3945 46.888C42.7732 45.224 41.9625 42.6213 41.9625 39.08C41.9625 35.9227 42.5812 32.616 43.8185 29.16C45.0985 25.6613 46.9758 22.7173 49.4505 20.328C51.9678 17.896 54.9545 16.68 58.4105 16.68C60.1598 16.68 61.4612 16.9787 62.3145 17.576C63.1678 18.1733 63.5945 18.9627 63.5945 19.944V20.392L64.2985 17H73.5145L68.9065 38.76C68.7358 39.4 68.6505 40.0827 68.6505 40.808C68.6505 42.6427 69.5252 43.56 71.2745 43.56C72.4692 43.56 73.4932 43.0053 74.3465 41.896C75.2425 40.7867 75.9465 39.336 76.4585 37.544H79.1465C77.5678 42.152 75.6052 45.288 73.2585 46.952C70.9545 48.5733 68.6292 49.384 66.2825 49.384C64.4905 49.384 63.0398 48.8933 61.9305 47.912C60.8638 46.888 60.2238 45.416 60.0105 43.496C58.7732 45.2453 57.3865 46.6747 55.8505 47.784C54.3572 48.8507 52.5652 49.384 50.4745 49.384ZM54.6345 43.176C55.7012 43.176 56.7465 42.6853 57.7705 41.704C58.8372 40.68 59.5625 39.2933 59.9465 37.544L63.0185 23.08C63.0185 22.5253 62.8052 21.992 62.3785 21.48C61.9518 20.9253 61.2905 20.648 60.3945 20.648C58.6878 20.648 57.1518 21.6507 55.7865 23.656C54.4212 25.6187 53.3545 28.008 52.5865 30.824C51.8185 33.5973 51.4345 36.0507 51.4345 38.184C51.4345 40.3173 51.7332 41.6827 52.3305 42.28C52.9705 42.8773 53.7385 43.176 54.6345 43.176Z" fill="black"/>
<path d="M87.17 13.544C85.762 13.544 84.5673 13.0533 83.586 12.072C82.6047 11.0907 82.114 9.896 82.114 8.488C82.114 7.08 82.6047 5.88534 83.586 4.904C84.5673 3.88 85.762 3.368 87.17 3.368C88.578 3.368 89.7727 3.88 90.754 4.904C91.778 5.88534 92.29 7.08 92.29 8.488C92.29 9.896 91.778 11.0907 90.754 12.072C89.7727 13.0533 88.578 13.544 87.17 13.544ZM82.818 49.384C80.77 49.384 79.106 48.744 77.826 47.464C76.5887 46.184 75.97 44.264 75.97 41.704C75.97 40.6373 76.1407 39.2507 76.482 37.544L80.834 17H90.05L85.442 38.76C85.2713 39.4 85.186 40.0827 85.186 40.808C85.186 41.6613 85.378 42.28 85.762 42.664C86.1887 43.0053 86.8713 43.176 87.81 43.176C89.0473 43.176 90.1993 42.664 91.266 41.64C92.3327 40.5733 93.1007 39.208 93.57 37.544H96.258C94.6793 42.152 92.6527 45.288 90.178 46.952C87.7033 48.5733 85.25 49.384 82.818 49.384Z" fill="black"/>
<path d="M97.8965 17H107.113L106.281 20.968C107.731 19.688 109.033 18.7067 110.185 18.024C111.379 17.3413 112.659 17 114.025 17C115.39 17 116.457 17.4693 117.225 18.408C118.035 19.3467 118.441 20.4773 118.441 21.8C118.441 23.0373 118.035 24.1253 117.225 25.064C116.414 26.0027 115.283 26.472 113.833 26.472C112.894 26.472 112.254 26.2587 111.912 25.832C111.614 25.3627 111.379 24.7013 111.209 23.848C111.081 23.2933 110.953 22.888 110.825 22.632C110.697 22.376 110.462 22.248 110.121 22.248C109.225 22.248 108.457 22.44 107.817 22.824C107.219 23.1653 106.43 23.784 105.449 24.68L100.328 49H91.1125L97.8965 17Z" fill="black"/>
<path d="M138.215 27.752L133.479 5.288C130.45 6.44 128.103 8.232 126.439 10.664C124.775 13.0533 123.943 15.9973 123.943 19.496C123.943 21.0747 124.092 22.184 124.391 22.824C124.69 23.4213 124.839 23.7627 124.839 23.848C122.535 23.848 120.807 23.3787 119.655 22.44C118.546 21.4587 117.991 19.8587 117.991 17.64C117.991 14.9093 119.1 12.264 121.319 9.704C123.58 7.10134 126.46 5.01067 129.959 3.432C133.458 1.81067 136.956 1 140.455 1C141.052 1 141.906 1.04267 143.015 1.128L145.767 14.44L153.191 1.32H157.671L146.919 19.944L152.935 49H142.759L139.367 33L130.087 49H126.183L138.215 27.752Z" fill="black"/>
<path d="M172.014 8.296L181.486 7.016L176.942 28.392C178.99 28.2213 180.868 27.3253 182.574 25.704C184.324 24.0827 185.689 22.0773 186.671 19.688C187.652 17.2987 188.143 14.952 188.143 12.648C188.143 10.088 187.481 7.99734 186.158 6.376C184.836 4.75467 182.852 3.944 180.206 3.944C175.001 3.944 170.926 5.30933 167.982 8.04C165.081 10.7707 163.63 14.5893 163.63 19.496C163.63 21.0747 163.78 22.184 164.078 22.824C164.377 23.4213 164.526 23.7627 164.526 23.848C162.222 23.848 160.494 23.3787 159.342 22.44C158.233 21.4587 157.678 19.8587 157.678 17.64C157.678 14.9093 158.788 12.264 161.007 9.704C163.268 7.10134 166.148 5.01067 169.646 3.432C173.145 1.81067 176.644 1 180.143 1C183.513 1 186.329 1.576 188.59 2.728C190.852 3.88 192.516 5.416 193.582 7.336C194.692 9.21333 195.246 11.304 195.246 13.608C195.246 16.3813 194.479 19.0907 192.943 21.736C191.449 24.3813 189.294 26.5573 186.479 28.264C183.662 29.928 180.42 30.76 176.75 30.76H176.43L172.526 49H163.311L172.014 8.296Z" fill="black"/>
<path d="M15.912 5.48C13.0533 6.67467 10.8347 8.46667 9.256 10.856C7.72 13.2453 6.952 16.1253 6.952 19.496C6.952 21.0747 7.10133 22.184 7.4 22.824C7.69867 23.4213 7.848 23.7627 7.848 23.848C5.544 23.848 3.816 23.3787 2.664 22.44C1.55467 21.4587 1 19.8587 1 17.64C1 14.9093 2.10933 12.264 4.328 9.704C6.58933 7.10134 9.46933 5.01067 12.968 3.432C16.4667 1.81067 19.9653 1 23.464 1C24.0613 1 24.9147 1.04267 26.024 1.128L21.928 20.2H31.336L35.432 1.128H44.648L34.472 49H25.256L30.376 24.936H20.968L15.848 49H6.632L15.912 5.48Z" stroke="black" stroke-width="2" mask="url(#path-1-outside-1_1_5)"/>
<path d="M50.4745 49.384C48.0425 49.384 46.0158 48.552 44.3945 46.888C42.7732 45.224 41.9625 42.6213 41.9625 39.08C41.9625 35.9227 42.5812 32.616 43.8185 29.16C45.0985 25.6613 46.9758 22.7173 49.4505 20.328C51.9678 17.896 54.9545 16.68 58.4105 16.68C60.1598 16.68 61.4612 16.9787 62.3145 17.576C63.1678 18.1733 63.5945 18.9627 63.5945 19.944V20.392L64.2985 17H73.5145L68.9065 38.76C68.7358 39.4 68.6505 40.0827 68.6505 40.808C68.6505 42.6427 69.5252 43.56 71.2745 43.56C72.4692 43.56 73.4932 43.0053 74.3465 41.896C75.2425 40.7867 75.9465 39.336 76.4585 37.544H79.1465C77.5678 42.152 75.6052 45.288 73.2585 46.952C70.9545 48.5733 68.6292 49.384 66.2825 49.384C64.4905 49.384 63.0398 48.8933 61.9305 47.912C60.8638 46.888 60.2238 45.416 60.0105 43.496C58.7732 45.2453 57.3865 46.6747 55.8505 47.784C54.3572 48.8507 52.5652 49.384 50.4745 49.384ZM54.6345 43.176C55.7012 43.176 56.7465 42.6853 57.7705 41.704C58.8372 40.68 59.5625 39.2933 59.9465 37.544L63.0185 23.08C63.0185 22.5253 62.8052 21.992 62.3785 21.48C61.9518 20.9253 61.2905 20.648 60.3945 20.648C58.6878 20.648 57.1518 21.6507 55.7865 23.656C54.4212 25.6187 53.3545 28.008 52.5865 30.824C51.8185 33.5973 51.4345 36.0507 51.4345 38.184C51.4345 40.3173 51.7332 41.6827 52.3305 42.28C52.9705 42.8773 53.7385 43.176 54.6345 43.176Z" stroke="black" stroke-width="2" mask="url(#path-1-outside-1_1_5)"/>
<path d="M87.17 13.544C85.762 13.544 84.5673 13.0533 83.586 12.072C82.6047 11.0907 82.114 9.896 82.114 8.488C82.114 7.08 82.6047 5.88534 83.586 4.904C84.5673 3.88 85.762 3.368 87.17 3.368C88.578 3.368 89.7727 3.88 90.754 4.904C91.778 5.88534 92.29 7.08 92.29 8.488C92.29 9.896 91.778 11.0907 90.754 12.072C89.7727 13.0533 88.578 13.544 87.17 13.544ZM82.818 49.384C80.77 49.384 79.106 48.744 77.826 47.464C76.5887 46.184 75.97 44.264 75.97 41.704C75.97 40.6373 76.1407 39.2507 76.482 37.544L80.834 17H90.05L85.442 38.76C85.2713 39.4 85.186 40.0827 85.186 40.808C85.186 41.6613 85.378 42.28 85.762 42.664C86.1887 43.0053 86.8713 43.176 87.81 43.176C89.0473 43.176 90.1993 42.664 91.266 41.64C92.3327 40.5733 93.1007 39.208 93.57 37.544H96.258C94.6793 42.152 92.6527 45.288 90.178 46.952C87.7033 48.5733 85.25 49.384 82.818 49.384Z" stroke="black" stroke-width="2" mask="url(#path-1-outside-1_1_5)"/>
<path d="M97.8965 17H107.113L106.281 20.968C107.731 19.688 109.033 18.7067 110.185 18.024C111.379 17.3413 112.659 17 114.025 17C115.39 17 116.457 17.4693 117.225 18.408C118.035 19.3467 118.441 20.4773 118.441 21.8C118.441 23.0373 118.035 24.1253 117.225 25.064C116.414 26.0027 115.283 26.472 113.833 26.472C112.894 26.472 112.254 26.2587 111.912 25.832C111.614 25.3627 111.379 24.7013 111.209 23.848C111.081 23.2933 110.953 22.888 110.825 22.632C110.697 22.376 110.462 22.248 110.121 22.248C109.225 22.248 108.457 22.44 107.817 22.824C107.219 23.1653 106.43 23.784 105.449 24.68L100.328 49H91.1125L97.8965 17Z" stroke="black" stroke-width="2" mask="url(#path-1-outside-1_1_5)"/>
<path d="M138.215 27.752L133.479 5.288C130.45 6.44 128.103 8.232 126.439 10.664C124.775 13.0533 123.943 15.9973 123.943 19.496C123.943 21.0747 124.092 22.184 124.391 22.824C124.69 23.4213 124.839 23.7627 124.839 23.848C122.535 23.848 120.807 23.3787 119.655 22.44C118.546 21.4587 117.991 19.8587 117.991 17.64C117.991 14.9093 119.1 12.264 121.319 9.704C123.58 7.10134 126.46 5.01067 129.959 3.432C133.458 1.81067 136.956 1 140.455 1C141.052 1 141.906 1.04267 143.015 1.128L145.767 14.44L153.191 1.32H157.671L146.919 19.944L152.935 49H142.759L139.367 33L130.087 49H126.183L138.215 27.752Z" stroke="black" stroke-width="2" mask="url(#path-1-outside-1_1_5)"/>
<path d="M172.014 8.296L181.486 7.016L176.942 28.392C178.99 28.2213 180.868 27.3253 182.574 25.704C184.324 24.0827 185.689 22.0773 186.671 19.688C187.652 17.2987 188.143 14.952 188.143 12.648C188.143 10.088 187.481 7.99734 186.158 6.376C184.836 4.75467 182.852 3.944 180.206 3.944C175.001 3.944 170.926 5.30933 167.982 8.04C165.081 10.7707 163.63 14.5893 163.63 19.496C163.63 21.0747 163.78 22.184 164.078 22.824C164.377 23.4213 164.526 23.7627 164.526 23.848C162.222 23.848 160.494 23.3787 159.342 22.44C158.233 21.4587 157.678 19.8587 157.678 17.64C157.678 14.9093 158.788 12.264 161.007 9.704C163.268 7.10134 166.148 5.01067 169.646 3.432C173.145 1.81067 176.644 1 180.143 1C183.513 1 186.329 1.576 188.59 2.728C190.852 3.88 192.516 5.416 193.582 7.336C194.692 9.21333 195.246 11.304 195.246 13.608C195.246 16.3813 194.479 19.0907 192.943 21.736C191.449 24.3813 189.294 26.5573 186.479 28.264C183.662 29.928 180.42 30.76 176.75 30.76H176.43L172.526 49H163.311L172.014 8.296Z" stroke="black" stroke-width="2" mask="url(#path-1-outside-1_1_5)"/>
</svg>
